Coordinates
version=1
nRows=26
nColumns=24
inDegrees=yes

Units are S.I. units (second, meters, Newtons, ...)
Angles are in degrees.

endheader
time	pelvis_tilt	pelvis_list	pelvis_rotation	pelvis_tx	pelvis_ty	pelvis_tz	hip_flexion_r	hip_adduction_r	hip_rotation_r	knee_angle_r	ankle_angle_r	subtalar_angle_r	mtp_angle_r	hip_flexion_l	hip_adduction_l	hip_rotation_l	knee_angle_l	ankle_angle_l	subtalar_angle_l	mtp_angle_l	lumbar_extension	lumbar_bending	lumbar_rotation
      1.71650000	     -1.19075809	      2.13660844	     -5.52026427	      1.31747130	      0.99946831	      0.33437878	     20.21666009	     -6.73088553	     -2.59422870	    -77.42627258	     -3.02516555	     -0.80907830	      5.63669957	     18.83391915	      2.49130305	     -6.80828816	    -21.77789702	      4.42160055	    -12.59495169	     -9.18253851	     -8.66045134	     -5.90155965	      4.19706648
      1.72066667	     -1.08440466	      1.96194434	     -5.17382026	      1.32224919	      1.00096314	      0.33337035	     20.76572614	     -6.57939159	     -2.97971370	    -77.36730141	     -2.62200070	     -0.77414856	      5.61951460	     18.23294602	      2.49715232	     -6.49074023	    -21.40725812	      4.50284571	    -12.45318109	     -9.16813724	     -8.85899495	     -5.59559484	      3.87780458
      1.72483333	     -0.97243382	      1.79474968	     -4.81637313	      1.32702833	      1.00245833	      0.33232954	     21.29554431	     -6.45150320	     -3.38140292	    -77.25919706	     -2.24191208	     -0.75272174	      5.59608320	     17.61272848	      2.51545661	     -6.14424903	    -21.00665578	      4.55606982	    -12.35205307	     -9.15177483	     -9.06488949	     -5.30515025	      3.55117619
      1.72900000	     -0.84655186	      1.61242221	     -4.46306357	      1.33178010	      1.00396512	      0.33131749	     21.79571101	     -6.31132625	     -3.78937530	    -77.09715188	     -1.87456281	     -0.74306292	      5.56773137	     16.97944482	      2.50829458	     -5.80099589	    -20.60565616	      4.60968054	    -12.25520065	     -9.13242480	     -9.28493795	     -4.99977484	      3.24139764
      1.73316667	     -0.72250162	      1.44697603	     -4.12379966	      1.33649569	      1.00542616	      0.33034094	     22.30065604	     -6.19162713	     -4.18608572	    -76.90512372	     -1.49702925	     -0.73530045	      5.53221582	     16.34585347	      2.50730711	     -5.47052585	    -20.19033204	      4.65740732	    -12.16950989	     -9.11036714	     -9.50162954	     -4.71689197	      2.92388481
      1.73733333	     -0.58627001	      1.25678286	     -3.78101455	      1.34119886	      1.00689941	      0.32936122	     22.77068460	     -6.05183275	     -4.59786946	    -76.65431127	     -1.15975743	     -0.77066200	      5.48815777	     15.70042962	      2.47570500	     -5.13210288	    -19.78165231	      4.70552193	    -12.09353856	     -9.08629040	     -9.72760037	     -4.39782397	      2.63647576
      1.74150000	     -0.44791289	      1.09142513	     -3.44885347	      1.34587323	      1.00834026	      0.32839452	     23.23559833	     -5.94757465	     -5.00197047	    -76.36801463	     -0.82689067	     -0.79659724	      5.43661068	     15.04578860	      2.46409071	     -4.79870293	    -19.34974688	      4.73017703	    -12.04711439	     -9.06136679	     -9.95232836	     -4.10409239	      2.35676244
      1.74566667	     -0.32244583	      0.91639793	     -3.15320579	      1.35053168	      1.00974548	      0.32754414	     23.70900895	     -5.81477493	     -5.37852489	    -76.03416256	     -0.50493196	     -0.84375835	      5.38005130	     14.39865088	      2.42041531	     -4.49378215	    -18.90697920	      4.76542414	    -11.99741228	     -9.03644358	    -10.15936668	     -3.82232933	      2.11798359
      1.74983333	     -0.17183012	      0.76554538	     -2.86000189	      1.35519635	      1.01115392	      0.32669540	     24.14535807	     -5.71623692	     -5.74747843	    -75.66571306	     -0.18874085	     -0.89570330	      5.31364412	     13.71553147	      2.39874801	     -4.20399600	    -18.43575655	      4.77349435	    -11.97448171	     -9.00977967	    -10.39372885	     -3.54455095	      1.87729141
      1.75400000	     -0.04864832	      0.58564638	     -2.56302485	      1.35982625	      1.01248237	      0.32586131	     24.59282064	     -5.58954335	     -6.13460353	    -75.24514202	      0.11518719	     -0.96204256	      5.24119274	     13.07916677	      2.33604801	     -3.90605250	    -18.00557183	      4.80920316	    -11.93006466	     -8.98330016	    -10.59014095	     -3.23880523	      1.66474143
      1.75816667	      0.07944243	      0.43819943	     -2.29995983	      1.36443344	      1.01377785	      0.32510174	     25.03863475	     -5.48823750	     -6.48302566	    -74.79609907	      0.39852288	     -1.03513523	      5.15664990	     12.42412944	      2.29770462	     -3.62697145	    -17.53351158	      4.80542714	    -11.94598091	     -8.95487047	    -10.79629492	     -2.97841518	      1.42445809
      1.76233333	      0.10767800	      0.32779357	     -2.12398916	      1.36900523	      1.01479740	      0.32461734	     25.62271866	     -5.36723641	     -6.72661490	    -74.35959478	      0.73191331	     -1.13680038	      5.12283416	     11.89610001	      2.25108404	     -3.48882863	    -17.10432800	      4.81548450	    -11.87801870	     -8.94356969	    -10.87625270	     -2.77865409	      1.35161274
      1.76650000	      0.31956345	      0.13916330	     -1.79506111	      1.37360390	      1.01621182	      0.32369268	     25.90653491	     -5.27883353	     -7.16819579	    -73.77353249	      0.95360822	     -1.18888053	      4.99892358	     11.14861395	      2.18579194	     -3.10525860	    -16.62463025	      4.84680605	    -11.91173904	     -8.90811265	    -11.17719038	     -2.45603758	      1.04611176
      1.77066667	      0.39715447	     -0.02324941	     -1.56326959	      1.37816737	      1.01729489	      0.32306277	     26.36784823	     -5.15012317	     -7.49469683	    -73.19834570	      1.21611183	     -1.24756992	      4.89614795	     10.57103847	      2.09794070	     -2.87686108	    -16.19700329	      4.88455363	    -11.91396058	     -8.88029630	    -11.31184656	     -2.17889559	      0.91110096
      1.77483333	      0.50531593	     -0.14915545	     -1.37232190	      1.38274119	      1.01839044	      0.32252330	     26.78995742	     -5.04669386	     -7.77789019	    -72.58905148	      1.47086522	     -1.33386464	      4.78384417	      9.93634889	      2.04126900	     -2.66366432	    -15.71638462	      4.87541221	    -11.95504016	     -8.85274823	    -11.48698799	     -1.95348714	      0.76051975
      1.77900000	      0.55105341	     -0.28353683	     -1.14601168	      1.38727450	      1.01931277	      0.32192993	     27.26594737	     -4.95332785	     -8.09589125	    -71.94606321	      1.70201351	     -1.40960071	      4.67567567	      9.40303041	      1.97307911	     -2.42950697	    -15.30244626	      4.91556769	    -11.95495847	     -8.82288713	    -11.58582479	     -1.71290124	      0.63138139
      1.78316667	      0.54173999	     -0.34729228	     -1.03284516	      1.39178322	      1.02004104	      0.32165158	     27.83563450	     -4.86212548	     -8.26927842	    -71.31895630	      1.98721561	     -1.50540290	      4.63317970	      8.91415343	      1.94440773	     -2.32507102	    -14.85557680	      4.91289847	    -11.92691308	     -8.81200445	    -11.62498716	     -1.57787482	      0.57297553
      1.78733333	      0.71922428	     -0.50421419	     -0.77808707	      1.39634143	      1.02116793	      0.32096085	     28.09584730	     -4.78186840	     -8.64310605	    -70.53673639	      2.16793856	     -1.57491017	      4.46748349	      8.21964485	      1.86074176	     -2.02567416	    -14.39481330	      4.93056941	    -11.99637978	     -8.77074265	    -11.87773338	     -1.30682445	      0.39443821
      1.79150000	      0.72280775	     -0.62142178	     -0.62235487	      1.40087942	      1.02189873	      0.32056821	     28.57539107	     -4.66935686	     -8.88522543	    -69.76629538	      2.34088269	     -1.64423313	      4.34906523	      7.73118602	      1.78145162	     -1.85758550	    -13.97740800	      4.95826901	    -12.03112656	     -8.74185020	    -11.91902837	     -1.09869256	      0.30951545
      1.79566667	      0.67521682	     -0.66773157	     -0.52230413	      1.40540964	      1.02242230	      0.32035967	     29.12989238	     -4.59475821	     -9.04523135	    -69.01528093	      2.61698807	     -1.72462728	      4.31259543	      7.30418032	      1.75620754	     -1.78178040	    -13.57844884	      4.98391137	    -11.98801727	     -8.73305874	    -11.90290739	     -0.99358336	      0.26685982
      1.79983333	      0.79482749	     -0.80767926	     -0.27544265	      1.40992640	      1.02329587	      0.31973166	     29.41020864	     -4.52704558	     -9.39663116	    -68.12110700	      2.75907002	     -1.80926578	      4.12979600	      6.69722408	      1.66957281	     -1.49360415	    -13.15624816	      5.01713109	    -12.02987499	     -8.69057670	    -12.09312462	     -0.73704918	      0.09730830
      1.80400000	      0.76573860	     -0.89548726	     -0.14360306	      1.41446721	      1.02381724	      0.31941579	     29.87762223	     -4.43894450	     -9.60848939	    -67.23751596	      2.90331545	     -1.87035007	      4.00506395	      6.25770894	      1.60637681	     -1.35053866	    -12.77172326	      5.06062621	    -12.06444653	     -8.65997818	    -12.09861373	     -0.55950527	      0.01216885
      1.80816667	      0.70095533	     -0.91083076	     -0.05708223	      1.41897464	      1.02416437	      0.31924060	     30.39947432	     -4.39382095	     -9.73783400	    -66.36816985	      3.15411326	     -1.93997135	      3.96801976	      5.85738851	      1.60564985	     -1.27648909	    -12.38215059	      5.09149839	    -12.01674262	     -8.65086140	    -12.07039405	     -0.48106100	     -0.01350051
      1.81233333	      0.80692001	     -1.04255773	      0.17933650	      1.42350420	      1.02489377	      0.31866803	     30.62692867	     -4.33225576	    -10.08116494	    -65.33703254	      3.27963464	     -2.02155150	      3.74506988	      5.28224786	      1.50851129	     -1.01862217	    -11.99705222	      5.13518844	    -12.03997252	     -8.59965771	    -12.23179906	     -0.24085333	     -0.18867755
      1.81650000	      0.71625081	     -1.06808953	      0.25606379	      1.42806293	      1.02513550	      0.31853159	     31.12303767	     -4.26985165	    -10.20297589	    -64.36437850	      3.45925221	     -2.08163606	      3.69391624	      4.92031201	      1.48874018	     -0.96044445	    -11.63828042	      5.17804463	    -12.01943479	     -8.58829970	    -12.16181036	     -0.16692739	     -0.21543080
      1.82066667	      0.72501359	     -1.16112963	      0.42966621	      1.43261531	      1.02557031	      0.31812458	     31.44237249	     -4.20681073	    -10.46105110	    -63.27948472	      3.53779191	     -2.19252608	      3.53769380	      4.46527628	      1.41311136	     -0.78101603	    -11.29985975	      5.27752452	    -11.98721562	     -8.55402180	    -12.21449901	      0.02561038	     -0.29402209
